<svg version="1.1" xmlns="http://www.w3.org/2000/svg" xmlns:xlink="http://www.w3.org/1999/xlink" width="75.86266" height="96.21071" viewBox="0,0,75.86266,96.21071"><defs><linearGradient x1="202.67167" y1="207.084" x2="232.85762" y2="207.084" gradientUnits="userSpaceOnUse" id="color-1"><stop offset="0" stop-color="#555555"/><stop offset="1" stop-color="#0c0c0c"/></linearGradient><linearGradient x1="240.97634" y1="193.3211" x2="260.44175" y2="193.3211" gradientUnits="userSpaceOnUse" id="color-2"><stop offset="0" stop-color="#555555"/><stop offset="1" stop-color="#0c0c0c"/></linearGradient><linearGradient x1="221.85661" y1="203.71213" x2="247.93275" y2="203.71213" gradientUnits="userSpaceOnUse" id="color-3"><stop offset="0" stop-color="#555555"/><stop offset="1" stop-color="#0c0c0c"/></linearGradient><linearGradient x1="210.70776" y1="187.72464" x2="234.97046" y2="187.72464" gradientUnits="userSpaceOnUse" id="color-4"><stop offset="0" stop-color="#555555"/><stop offset="1" stop-color="#0c0c0c"/></linearGradient><linearGradient x1="212.75535" y1="158.3584" x2="277.33433" y2="158.3584" gradientUnits="userSpaceOnUse" id="color-5"><stop offset="0" stop-color="#555555"/><stop offset="1" stop-color="#0c0c0c"/></linearGradient><radialGradient cx="236.503" cy="194.58093" r="30.79569" gradientUnits="userSpaceOnUse" id="color-6"><stop offset="0" stop-color="#ababab"/><stop offset="1" stop-color="#000c13"/></radialGradient></defs><g transform="translate(-202.07168,-131.80656)"><g data-paper-data="{&quot;isPaintingLayer&quot;:true}" fill="none" fill-rule="none" stroke="none" stroke-width="none" stroke-linecap="none" stroke-linejoin="none" stroke-miterlimit="10" stroke-dasharray="" stroke-dashoffset="0" font-family="none" font-weight="none" font-size="none" text-anchor="none" style="mix-blend-mode: normal"><path d="M230.62416,205.20819c-0.7,0.9 -2.7,4.4 -7.5,7.4c-3.3,2.1 -11.8,-1.4 -11.8,-1.4c0.9,9.2 -6.6,9 -8,6c-1.1,-2.4 -0.9,-12.7 1.3,-13.5c3.4,-1.2 8,0.8 12.1,0.8c1.2,0 2.5,-2.6 5.3,-5.4c2,-2 4.6,-5.7 8.8,-3.1c3.6,2.3 1.7,6.5 -0.2,9.2z" data-paper-data="{&quot;origPos&quot;:null}" id="leg" fill="url(#color-1)" fill-rule="evenodd" stroke="#001026" stroke-width="1.2" stroke-linecap="round" stroke-linejoin="round"/><path d="M247.82416,184.00819c0.3,2.2 0.5,10.6 2.9,11.9c2.3,1.2 9.3,-0.8 9.7,4.1c0.4,4.8 -6.1,4.9 -11.5,3.4c-7,-1.9 -10.2,-12.6 -6.2,-19.2c1.5,-2.3 4.8,-2.5 5.1,-0.2z" data-paper-data="{&quot;origPos&quot;:null}" id="arm" fill="url(#color-2)" fill-rule="evenodd" stroke="#001026" stroke-width="1.2" stroke-linecap="round" stroke-linejoin="round"/><g data-paper-data="{&quot;origPos&quot;:null}" id="body-and-leg" fill-rule="evenodd"><path d="M245.32416,207.00819c0.6,3.3 -4.2,10.8 -4.2,10.8c0,0 6,4.1 2.2,8.3c-2.8,3.1 -5,0.6 -12.3,-6.5c-1.1,-1.1 -1.1,-2.7 -0.2,-3.8c2.1,-2.4 5.1,-6.5 3.1,-8.4c-2.8,-2 -6,-4 -8,-5.2c-8.2,-4.8 -2.2,-10.7 2.3,-19c2.4,-4.5 3.6,-3.3 9.6,-2.1c3.4,0.5 5.4,0.8 7.6,0.7c3.3,-0.1 2.7,4.7 1.8,7.2c0,0 -1.4,3.7 -2.7,5.6c-1.6,2.4 -3.4,4.8 -4.6,5.7c0,0 4.7,3.5 5.4,6.7z" data-paper-data="{&quot;origPos&quot;:null}" id="body" fill="url(#color-3)" stroke="#001026" stroke-width="1.2" stroke-linecap="round" stroke-linejoin="round"/><path d="M239.15256,200.21109c0,0 -1.5,-1.2 -3.1,-2.7c-2,-1.8 -4,-3.3 -2,-6.4c1.8,-2.4 3.5,-5.6 8,-2.7c4.3,2.7 2.4,5.2 2.4,5.2c-2.2,4.5 -5.3,6.6 -5.3,6.6z" id="tummy" fill="#ffffff" stroke="none" stroke-width="1" stroke-linecap="butt" stroke-linejoin="miter"/></g><path d="M230.02416,187.20819c-2.2,1 -6.3,-0.8 -7.4,-0.6c-0.3,0.1 -2.1,5.3 -3.2,8.4c-1.5,4.4 -8.3,3.1 -8.7,-1.5c-0.3,-4.3 3.6,-12.6 4.9,-14.1c2.9,-3.5 12.7592,-0.6917 19.3463,1.0565" data-paper-data="{&quot;origPos&quot;:null}" id="arm" fill="url(#color-4)" fill-rule="evenodd" stroke="#001026" stroke-width="1.2" stroke-linecap="round" stroke-linejoin="round"/><g data-paper-data="{&quot;origRot&quot;:0,&quot;origPos&quot;:null}" fill-rule="evenodd"><path d="M261.84073,139.2126c5.34218,4.16652 5.55955,5.66934 6.9033,9.23225c2.27248,5.94355 1.64647,10.40092 1.64647,10.40092c0,0 6.66913,3.21601 6.93551,9.03486c0.26638,5.81885 -5.81548,15.76928 -24.96595,16.39333c-19.15047,0.62405 -33.23204,-6.84117 -38.40345,-19.23578c-5.17141,-12.39462 8.07262,-24.01339 7.35161,-23.32046c0,0 5.49032,-6.43263 10.34839,-8.00032c4.30601,-1.38953 6.71665,-1.57644 11.38751,-1.01692c2.79566,0.25354 12.66906,1.73306 18.79661,6.51211z" data-paper-data="{&quot;origPos&quot;:null}" fill="url(#color-5)" stroke="#001026" stroke-width="1.2" stroke-linecap="butt" stroke-linejoin="miter"/><path d="M269.72157,159.14191c0,0 6.52005,2.88772 6.78643,8.70657c0.26638,5.81885 -6.12974,15.21139 -25.06671,15.76895c-24.68934,1.03744 -33.72018,-15.02662 -25.40055,-24.40926c8.33573,-9.48133 18.22011,1.35191 26.60709,2.11252c7.18654,0.66605 8.99068,-5.42288 17.07375,-2.17879z" data-paper-data="{&quot;origPos&quot;:null}" id="face" fill="#ffffff" stroke="none" stroke-width="1" stroke-linecap="butt" stroke-linejoin="miter"/><path d="M259.60344,180.20196c-0.06442,0.39478 -0.50751,0.62644 -0.88618,0.46333c-1.76247,-0.99685 -6.83431,-3.44561 -12.69157,-4.80666c-5.2812,-1.16573 -8.48774,-1.38499 -10.01648,-1.33047c-0.50958,0.01817 -0.82383,-0.53972 -0.54592,-1.00098c1.32307,-2.51982 6.28131,-9.30995 16.54763,-7.0268c8.82017,2.45246 8.67773,8.91386 7.59253,13.70159z" data-paper-data="{&quot;origPos&quot;:null,&quot;index&quot;:null}" id="mouth" fill="#ffffff" stroke="#001026" stroke-width="1.2" stroke-linecap="round" stroke-linejoin="round"/><path d="M275.3315,165.12344" id="whisker" fill="none" stroke="#001026" stroke-width="1.2" stroke-linecap="round" stroke-linejoin="round"/><path d="M274.77611,171.01084" id="whisker" fill="none" stroke="#001026" stroke-width="1.2" stroke-linecap="round" stroke-linejoin="round"/><path d="M252.67177,158.69022c2.07259,0.3382 4.21166,0.88988 4.19763,1.59685c-0.12677,1.39783 -2.05812,3.91971 -3.65334,3.76074c-1.80871,-0.09249 -5.55128,-3.23625 -5.2936,-4.81537c0.09456,-1.20044 2.77542,-0.86431 4.74932,-0.54222z" id="nose" fill="#001026" stroke="#001026" stroke-width="1.2" stroke-linecap="round" stroke-linejoin="round"/><path d="M219.49261,157.73439" id="whisker" fill="none" stroke="#001026" stroke-width="1.2" stroke-linecap="round" stroke-linejoin="round"/><path d="M219.22503,161.23702" id="whisker" fill="none" stroke="#001026" stroke-width="1.2" stroke-linecap="round" stroke-linejoin="round"/><g id="eye"><path d="M266.20197,149.04327c2.13744,4.90829 1.4148,9.95783 -1.63853,11.2834c-3.05333,1.32558 -7.25509,-1.48782 -9.49123,-6.41222c-2.13744,-4.90829 -1.4148,-9.95783 1.63853,-11.2834c3.06944,-1.42427 7.35379,1.50392 9.49123,6.41222z" id="pupil" fill="#ffffff" stroke="#001026" stroke-width="1.2" stroke-linecap="round" stroke-linejoin="round"/><path d="M264.88923,154.60445c-0.17715,1.08564 -1.11165,1.84506 -2.0986,1.68401c-0.98695,-0.16105 -1.63156,-1.17813 -1.45441,-2.26378c0.17715,-1.08564 1.11165,-1.84506 2.0986,-1.68401c0.98695,0.16105 1.63156,1.17813 1.45441,2.26378" id="pupil" fill="#001026" stroke="none" stroke-width="1" stroke-linecap="butt" stroke-linejoin="miter"/></g><g id="eye"><path d="M241.27476,147.8128c2.25224,4.8257 1.18521,10.12301 -1.78554,11.56338c-3.56291,1.34375 -7.68001,-0.74658 -9.93226,-5.57228c-2.35094,-4.84181 -1.63037,-10.49961 1.78347,-12.17166c3.42994,-1.77074 7.68208,1.35485 9.93432,6.18055z" fill="#ffffff" stroke="#001026" stroke-width="1.2" stroke-linecap="round" stroke-linejoin="round"/><path d="M239.74853,153.44046c-0.17715,1.08564 -1.11165,1.84506 -2.0986,1.68401c-0.98695,-0.16105 -1.63156,-1.17813 -1.45441,-2.26378c0.17715,-1.08564 1.11165,-1.84506 2.0986,-1.68401c0.97084,0.25974 1.63156,1.17813 1.45441,2.26378" id="pupil" fill="#001026" stroke="none" stroke-width="1" stroke-linecap="butt" stroke-linejoin="miter"/></g></g><path d="M227.63533,224.64445c-9.75711,-3.31189 -15.1931,-23.37796 -15.1931,-23.37796l13.51208,-42.02397l39.85002,11.52095l-13.47248,44.04292c0,0 -14.9394,13.14995 -24.69652,9.83806z" data-paper-data="{&quot;origPos&quot;:null,&quot;origRot&quot;:0}" fill="url(#color-6)" fill-rule="nonzero" stroke="#545454" stroke-width="2.5" stroke-linecap="round" stroke-linejoin="miter"/></g></g></svg>