<svg version="1.1" xmlns="http://www.w3.org/2000/svg" xmlns:xlink="http://www.w3.org/1999/xlink" width="78.8252" height="92.34156" viewBox="0,0,78.8252,92.34156"><defs><linearGradient x1="248.68995" y1="220.19206" x2="267.74453" y2="220.19206" gradientUnits="userSpaceOnUse" id="color-1"><stop offset="0" stop-color="#19ffc8"/><stop offset="1" stop-color="#197eff"/></linearGradient><linearGradient x1="257.04453" y1="220.23375" x2="261.74019" y2="220.23375" gradientUnits="userSpaceOnUse" id="color-2"><stop offset="0" stop-color="#f6ff19"/><stop offset="1" stop-color="#ffbf19"/></linearGradient><linearGradient x1="201.06252" y1="216.9871" x2="216.19381" y2="216.88628" gradientUnits="userSpaceOnUse" id="color-3"><stop offset="0" stop-color="#19ffc8"/><stop offset="1" stop-color="#197eff"/></linearGradient><linearGradient x1="207.01737" y1="215.71642" x2="210.27834" y2="219.09506" gradientUnits="userSpaceOnUse" id="color-4"><stop offset="0" stop-color="#f6ff19"/><stop offset="1" stop-color="#ffbf19"/></linearGradient></defs><g transform="translate(-200.42846,-133.82922)"><g data-paper-data="{&quot;isPaintingLayer&quot;:true}" fill="none" fill-rule="none" stroke="none" stroke-width="none" stroke-linecap="none" stroke-linejoin="none" stroke-miterlimit="10" stroke-dasharray="" stroke-dashoffset="0" font-family="none" font-weight="none" font-size="none" text-anchor="none" style="mix-blend-mode: normal"><path d="M230.75794,207.32922c-1.8,1.2 -8,5.6 -15.9,8.1l-0.4,0.1c-0.4,0.1 -0.6,0.6 -0.4,1c1.7,2.4 4.8,7.2 -0.7,8.9c-5.3,1.7 -15.2,-12.4 -11,-16.1c1.9,-1.4 3.6,-0.7 4.5,-0.3c0.5,0.2 1,0.2 1.5,0.1c1.2,-0.4 3.4,-1.2 5.1,-2.1c4.3,-2.2 5.3,-3.1 7.3,-4.6c2,-1.5 6.6,-5.2 10.3,-2c3.2,2.7 1.4,5.7 -0.3,6.9z" id="leg" fill="#ffab19" fill-rule="evenodd" stroke="#001026" stroke-width="1.2" stroke-linecap="round" stroke-linejoin="round"/><path d="M246.65794,186.52922c0.5,0.4 6.6,7.6 8.6,5.8c2.4,-2.1 5.7,-6.2 9.3,-2.9c3.6,3.3 -3.2,8.9 -6.1,10.4c-6.9,3.1 -12.5,-2.8 -13.7,-4.4c-1.2,-1.6 -3.3,-4.3 -3.3,-6.9c0.1,-2.8 3.5,-3.5 5.2,-2z" id="arm" fill="#ffab19" fill-rule="evenodd" stroke="#001026" stroke-width="1.2" stroke-linecap="round" stroke-linejoin="round"/><g id="body-and-leg" fill-rule="evenodd"><path d="M246.75794,209.82922c2.1,1.9 6.7,5.8 6.7,5.8c0,0 14.3,-2.5 14.3,4.7c0,4.3 -7.2,5.3 -16.9,4.4c-0.6,-0.1 -1.2,-0.3 -1.7,-0.7c-2.2,-1.9 -8.5,-7.5 -12.5,-11.4c-5.9,-5.8 -10.8,-9.6 -10.8,-9.6c-8.5,-8.3 -1.6,-11.8 1.1,-16.6c2.5,-4.1 3.6,-3.3 9.6,-2.1c3.4,0.5 5.4,0.8 7.6,0.7c3.3,-0.1 2.7,4.7 1.8,7.2c0,0 -1.4,3.7 -2.7,5.6c-1.6,2.3 -2.8,3.8 -4,4.7z" id="body" fill="#ffab19" stroke="#001026" stroke-width="1.2" stroke-linecap="round" stroke-linejoin="round"/><path d="M238.35794,202.42922c0,0 -1.5,-1.2 -3.1,-2.7c-2,-1.8 -4,-3.3 -2,-6.4c1.8,-2.4 3.5,-5.6 8,-2.7c4.3,2.7 2.4,5.2 2.4,5.2c-2.2,4.5 -5.3,6.6 -5.3,6.6z" id="tummy" fill="#ffffff" stroke="none" stroke-width="1" stroke-linecap="butt" stroke-linejoin="miter"/></g><path d="M223.25794,194.22922c2.2,2.8 5.6,6.3 1.3,9.2c-5.9,3.3 -10.8,-6.7 -11.8,-10.2c-0.9,-3.1 1.7,-5.1 3.9,-6.8c4.3,-3.1 7.9,-5.9 11.9,-4.4c5,1.8 1.4,5.8 -1.1,7.6c-1.5,1.1 -3,2.3 -4.1,3c-0.3,0.5 -0.4,1.1 -0.1,1.6z" id="arm" fill="#ffab19" fill-rule="evenodd" stroke="#001026" stroke-width="1.2" stroke-linecap="round" stroke-linejoin="round"/><path d="M258.57045,137.82922c5.94345,3.2518 6.4,4.7 8.3,8c3.2,5.5 3.3,10 3.3,10c0,0 7.1,2.1 8.3,7.8c1.2,5.7 -3.2,16.5 -22,20.2c-18.8,3.7 -33.9,-1.4 -41,-12.8c-7.1,-11.4 4.1,-25 3.5,-24.2c0,0 4.38271,-7.23286 8.9249,-9.56245c4.02603,-2.06486 6.3751,-2.63755 11.0751,-2.83755c2.8,-0.2 12.78279,-0.32986 19.6,3.4z" data-paper-data="{&quot;origPos&quot;:null}" fill="#ffab19" fill-rule="evenodd" stroke="#001026" stroke-width="1.2" stroke-linecap="butt" stroke-linejoin="miter"/><path d="M269.55794,156.22922c0,0 6.9,1.8 8.1,7.5c1.2,5.7 -3.6,16 -22.2,19.6c-24.2,5 -35.7,-9.4 -29,-20c6.7,-10.7 18.2,-1.6 26.6,-2.2c7.2,-0.5 8,-6.8 16.5,-4.9z" data-paper-data="{&quot;origPos&quot;:null}" id="face" fill="#ffffff" fill-rule="evenodd" stroke="none" stroke-width="1" stroke-linecap="butt" stroke-linejoin="miter"/><path d="M262.9635,178.64386c0,0.4 -0.4,0.7 -0.8,0.6c-1.9,-0.7 -7.3,-2.3 -13.3,-2.7c-5.4,-0.3 -8.6,0 -10.1,0.3c-0.5,0.1 -0.9,-0.4 -0.7,-0.9c0.9,-2.7 4.7,-10.2 15.2,-9.6c9.1,1 10,7.4 9.7,12.3z" data-paper-data="{&quot;origPos&quot;:null,&quot;index&quot;:null}" id="mouth" fill="#ffffff" fill-rule="evenodd" stroke="#001026" stroke-width="1.2" stroke-linecap="round" stroke-linejoin="round"/><path d="M276.05794,161.22922" id="whisker" fill="none" fill-rule="evenodd" stroke="#001026" stroke-width="1.2" stroke-linecap="round" stroke-linejoin="round"/><path d="M276.45794,167.12922" id="whisker" fill="none" fill-rule="evenodd" stroke="#001026" stroke-width="1.2" stroke-linecap="round" stroke-linejoin="round"/><path d="M252.65794,158.52922c2.1,0 4.3,0.2 4.4,0.9c0.1,1.4 -1.4,4.2 -3,4.3c-1.8,0.2 -6,-2.3 -6,-3.9c-0.1,-1.2 2.6,-1.3 4.6,-1.3z" id="nose" fill="#001026" fill-rule="evenodd" stroke="#001026" stroke-width="1.2" stroke-linecap="round" stroke-linejoin="round"/><path d="M219.75794,162.92922" id="whisker" fill="none" fill-rule="evenodd" stroke="#001026" stroke-width="1.2" stroke-linecap="round" stroke-linejoin="round"/><path d="M220.05794,166.42922" id="whisker" fill="none" fill-rule="evenodd" stroke="#001026" stroke-width="1.2" stroke-linecap="round" stroke-linejoin="round"/><g id="eye" fill-rule="evenodd"><path d="M264.45794,146.82922c2.9,4.5 3,9.6 0.2,11.4c-2.8,1.8 -7.4,-0.3 -10.4,-4.8c-2.9,-4.5 -3,-9.6 -0.2,-11.4c2.8,-1.9 7.5,0.3 10.4,4.8z" id="pupil" fill="#ffffff" stroke="#001026" stroke-width="1.2" stroke-linecap="round" stroke-linejoin="round"/><path d="M264.05794,152.52922c0,1.1 -0.8,2 -1.8,2c-1,0 -1.8,-0.9 -1.8,-2c0,-1.1 0.8,-2 1.8,-2c1,0 1.8,0.9 1.8,2" id="pupil" fill="#001026" stroke="none" stroke-width="1" stroke-linecap="butt" stroke-linejoin="miter"/></g><g id="eye" fill-rule="evenodd"><path d="M239.65794,149.62922c3,4.4 2.8,9.8 0.1,11.7c-3.3,1.9 -7.7,0.5 -10.7,-3.9c-3.1,-4.4 -3.3,-10.1 -0.2,-12.3c3.1,-2.3 7.8,0.1 10.8,4.5z" fill="#ffffff" stroke="#001026" stroke-width="1.2" stroke-linecap="round" stroke-linejoin="round"/><path d="M239.05794,155.42922c0,1.1 -0.8,2 -1.8,2c-1,0 -1.8,-0.9 -1.8,-2c0,-1.1 0.8,-2 1.8,-2c1,0.1 1.8,0.9 1.8,2" id="pupil" fill="#001026" stroke="none" stroke-width="1" stroke-linecap="butt" stroke-linejoin="miter"/></g><g data-paper-data="{&quot;origPos&quot;:null}" stroke="#001026" stroke-linecap="round"><g data-paper-data="{&quot;origPos&quot;:null}" id="body-and-leg" fill="url(#color-1)" fill-rule="evenodd" stroke-width="1.2" stroke-linejoin="round"><path d="M253.44453,215.70041c0,0 14.3,-2.5 14.3,4.7c0,4.3 -7.2,5.3 -16.9,4.4c-0.6,-0.1 -1.2,-0.3 -1.7,-0.7c-2.2,-1.9 4.3,-8.4 4.3,-8.4z" data-paper-data="{&quot;origPos&quot;:null}" id="body"/></g><path d="M259.86097,218.85693l1.76812,0.11111l-1.45411,1.52657l0.5942,2.12802l-1.71256,-1.86715l-2.01208,1.56522l1.10145,-2.1256l-1.26812,-1.37681l1.73188,-0.01932l0.65217,-1.56522z" data-paper-data="{&quot;origPos&quot;:null}" fill="url(#color-2)" fill-rule="nonzero" stroke-width="0.25" stroke-linejoin="miter"/></g><g data-paper-data="{&quot;origRot&quot;:0,&quot;origPos&quot;:null}" stroke="#001026" stroke-linecap="round"><path d="M213.77047,216.39811c1.71595,2.38862 4.84787,7.16786 -0.64068,8.90447c-5.28855,1.73528 -15.28229,-12.29844 -11.10703,-16.02635c1.89063,-1.41263 3.59526,-0.72397 4.4979,-0.32998c0.50132,0.19666 7.04715,7.0532 7.24981,7.45186z" data-paper-data="{&quot;origPos&quot;:null}" id="leg" fill="url(#color-3)" fill-rule="evenodd" stroke-width="1.2" stroke-linejoin="round"/><path d="M209.96393,216.78676l1.14795,1.34936l-2.10823,0.01389l-1.11851,1.90538l0.15414,-2.5289l-2.52353,-0.36075l2.29434,-0.68364l0.10999,-1.86859l1.21664,1.23272l1.57913,-0.61774z" data-paper-data="{&quot;origPos&quot;:null,&quot;origRot&quot;:0}" fill="url(#color-4)" fill-rule="nonzero" stroke-width="0.25" stroke-linejoin="miter"/></g></g></g></svg>